<mxfile host="app.diagrams.net" agent="Mozilla/5.0 (Windows NT 10.0; Win64; x64) AppleWebKit/537.36 (KHTML, like Gecko) Chrome/136.0.0.0 Safari/537.36 Edg/136.0.0.0" version="27.0.6">
  <diagram name="Page-1" id="eBwsoWk5RnooKokPJa3m">
    <mxGraphModel dx="1034" dy="536" grid="1" gridSize="10" guides="1" tooltips="1" connect="1" arrows="1" fold="1" page="1" pageScale="1" pageWidth="850" pageHeight="1100" math="0" shadow="0">
      <root>
        <mxCell id="0" />
        <mxCell id="1" parent="0" />
        <mxCell id="20JYD9eVNZQbajboZYsI-1" value="TASK" style="swimlane;whiteSpace=wrap;html=1;" vertex="1" parent="1">
          <mxGeometry x="325" y="50" width="200" height="200" as="geometry" />
        </mxCell>
        <mxCell id="20JYD9eVNZQbajboZYsI-2" value="- id: UUID&lt;div&gt;- name: string&lt;/div&gt;&lt;div&gt;- description: text&lt;/div&gt;&lt;div&gt;- status: string&lt;/div&gt;&lt;div&gt;- created_at: datetime&lt;/div&gt;&lt;div&gt;- updated_at: datetime&lt;/div&gt;" style="text;html=1;align=left;verticalAlign=middle;resizable=0;points=[];autosize=1;strokeColor=none;fillColor=none;" vertex="1" parent="20JYD9eVNZQbajboZYsI-1">
          <mxGeometry x="5" y="20" width="140" height="100" as="geometry" />
        </mxCell>
      </root>
    </mxGraphModel>
  </diagram>
</mxfile>
